<?xml version="1.0" standalone="no"?>
<!DOCTYPE svg PUBLIC "-//W3C//DTD SVG 20010904//EN"
 "http://www.w3.org/TR/2001/REC-SVG-20010904/DTD/svg10.dtd">
<svg version="1.0" xmlns="http://www.w3.org/2000/svg"
 width="300.000000pt" height="300.000000pt" viewBox="0 0 300.000000 300.000000"
 preserveAspectRatio="xMidYMid meet">
<metadata>
Created by potrace 1.10, written by Peter Selinger 2001-2011
</metadata>
<g transform="translate(0.000000,300.000000) scale(0.100000,-0.100000)"
fill="#000000" stroke="none">
<path d="M1004 2442 c-55 -51 -73 -85 -54 -107 9 -11 0 -28 -41 -81 -29 -36
-70 -99 -91 -138 l-37 -71 -1 47 c0 65 19 148 34 148 21 0 46 35 46 64 0 33
-25 96 -39 96 -15 0 -48 -38 -62 -72 -10 -26 -10 -35 5 -62 14 -27 15 -39 6
-81 -19 -82 -17 -418 2 -495 35 -140 80 -240 175 -392 115 -184 177 -309 177
-360 0 -20 4 -34 8 -32 5 3 8 0 8 -6 0 -6 5 -8 10 -5 5 3 10 2 10 -3 0 -24
-17 -17 -59 24 -79 76 -188 114 -326 114 l-50 -1 30 -16 c17 -9 64 -51 105
-93 66 -68 83 -80 142 -99 37 -13 73 -19 80 -15 7 4 10 4 6 -1 -4 -4 7 -19 23
-32 26 -22 59 -71 59 -88 0 -3 -17 -5 -37 -5 -61 0 -113 -12 -113 -25 0 -9 63
-14 242 -18 239 -7 758 -10 758 -4 0 1 9 65 20 142 11 77 20 152 20 168 0 46
-25 30 -44 -27 -31 -102 -126 -201 -215 -226 -53 -16 -471 -26 -471 -12 0 14
54 54 102 77 73 34 126 92 173 190 25 51 45 96 45 98 0 14 -230 -105 -267
-138 -38 -32 -43 -34 -43 -16 0 12 10 29 23 39 49 38 113 111 134 153 23 47
58 167 50 175 -8 8 -132 -67 -169 -104 l-38 -36 0 42 c0 24 15 82 37 137 l36
95 131 0 c181 -1 229 -20 268 -107 10 -24 23 -43 28 -43 6 0 10 67 10 165 0
136 -2 165 -14 165 -8 0 -20 -16 -26 -35 -16 -49 -69 -91 -130 -104 -63 -14
-111 -14 -66 -1 39 12 66 39 66 67 0 16 6 23 19 23 35 0 62 32 66 80 7 68 -3
98 -36 115 -16 9 -29 24 -29 34 0 10 -7 24 -15 31 -8 7 -15 18 -15 26 0 16
-31 34 -57 34 -10 0 -26 9 -36 20 -20 24 -49 26 -82 4 -22 -14 -26 -14 -49 1
-22 15 -31 16 -56 5 -17 -7 -33 -10 -36 -7 -4 3 -7 78 -8 166 l-1 161 171 0
c94 0 197 -5 230 -11 124 -22 187 -90 218 -231 4 -16 13 -28 22 -28 14 0 15
10 10 68 -3 37 -9 106 -12 155 l-6 87 -474 0 -473 0 -20 -29 -21 -29 38 5 c31
4 44 0 70 -22 19 -16 33 -39 37 -58 2 -18 6 -185 7 -372 l3 -341 -27 64 c-15
36 -29 67 -32 70 -10 9 -56 -112 -62 -163 -5 -42 -2 -62 21 -116 15 -35 39
-97 52 -137 14 -40 27 -71 30 -68 2 2 -1 31 -7 64 -11 52 -10 63 6 93 l19 34
3 -119 c2 -77 -1 -123 -8 -130 -8 -8 -9 -3 -4 18 4 19 3 27 -3 23 -6 -4 -18
12 -28 36 -9 23 -47 96 -85 162 -103 182 -113 266 -55 449 32 99 70 275 61
283 -5 5 -82 -116 -103 -162 -15 -33 -18 -65 -17 -180 1 -77 6 -160 12 -185 6
-24 9 -46 7 -49 -7 -6 -80 153 -105 229 -28 84 -54 280 -45 349 8 65 66 179
141 277 45 60 58 70 78 67 16 -3 40 7 75 32 39 26 58 34 74 29 19 -6 20 -5 8
10 -7 9 -20 16 -27 16 -17 0 -17 10 -4 45 10 28 7 28 -47 8 -7 -3 -13 8 -15
26 l-3 31 -51 -48z m12 -42 c-20 -22 -36 -47 -36 -55 0 -8 -4 -15 -10 -15 -29
0 -1 63 44 102 44 37 45 15 2 -32z m79 -5 c-2 -29 -10 -40 -46 -64 -54 -37
-72 -29 -27 11 29 26 29 28 6 14 -16 -9 -28 -13 -28 -8 0 11 61 68 80 75 8 3
15 6 16 6 0 1 0 -15 -1 -34z m-257 -89 c-4 -46 -28 -62 -29 -19 l-1 28 -10
-28 c-5 -15 -14 -25 -19 -21 -15 9 -10 47 12 84 20 33 22 33 36 15 8 -12 13
-37 11 -59z m375 -110 l52 -11 -3 -180 c-4 -233 -9 -283 -33 -296 -27 -14 -24
-63 6 -107 23 -34 25 -46 25 -147 0 -98 -3 -120 -30 -191 -34 -92 -39 -86 -9
11 25 81 20 94 -10 26 -20 -47 -36 -164 -44 -311 -1 -30 0 199 2 510 2 405 0
577 -8 607 -12 45 -60 93 -92 93 -10 0 -19 5 -19 11 0 11 74 5 163 -15z m107
-170 c0 -183 -3 -216 -22 -216 -6 0 -8 73 -6 195 l3 194 -35 4 c-29 3 -27 4
13 5 l47 2 0 -184z m634 141 c3 -16 6 -40 6 -54 0 -21 -3 -22 -20 -13 -11 6
-17 16 -14 22 4 7 3 8 -4 4 -6 -3 -16 2 -21 13 -6 11 -20 22 -30 26 -11 3 -22
12 -25 21 -5 12 4 14 48 13 51 -2 54 -3 60 -32z m-978 -393 c-14 -55 -32 -119
-40 -144 l-15 -45 0 56 c-1 62 21 146 52 201 12 20 23 35 25 34 2 -2 -8 -48
-22 -102z m479 61 c27 -22 30 -31 33 -96 4 -57 2 -71 -9 -67 -8 3 -13 13 -13
22 1 9 -2 16 -7 16 -5 0 -8 3 -7 8 2 11 -22 65 -27 60 -3 -3 2 -24 10 -48 18
-50 21 -84 5 -60 -8 13 -10 12 -10 -2 0 -32 -15 -19 -43 38 -15 30 -31 53 -36
50 -5 -3 -14 1 -21 9 -20 24 1 67 41 81 47 17 50 17 84 -11z m115 5 c7 -13 21
-20 40 -20 30 0 50 -22 50 -54 0 -19 -69 -98 -80 -91 -4 2 -15 -4 -25 -15 -14
-16 -20 -17 -27 -8 -4 7 -8 18 -8 23 0 6 4 5 8 -1 4 -8 19 4 41 32 19 25 32
47 29 49 -3 3 -18 -13 -34 -36 -30 -44 -43 -38 -25 13 6 17 11 43 10 57 0 14
-9 -8 -20 -49 -24 -90 -34 -103 -26 -35 4 28 2 68 -3 90 -6 26 -5 44 2 52 16
20 56 16 68 -7z m-249 -85 c17 -19 36 -32 42 -28 5 3 7 1 4 -5 -9 -13 2 -44
13 -37 5 3 6 -5 3 -17 -4 -19 -3 -20 6 -8 9 12 11 11 11 -9 0 -18 -3 -21 -13
-12 -8 6 -18 7 -22 3 -5 -4 -5 -1 -1 6 10 17 -9 39 -56 63 -27 14 -38 26 -38
43 0 20 7 36 17 36 2 0 17 -16 34 -35z m367 -17 c-2 -6 -10 -14 -16 -16 -7 -2
-10 2 -6 12 7 18 28 22 22 4z m-379 -42 c15 -8 34 -22 41 -31 12 -15 10 -16
-16 -10 -27 6 -27 5 6 -10 43 -20 100 -63 100 -76 0 -5 -9 -9 -20 -9 -12 0
-35 -7 -52 -16 -40 -21 -72 -7 -95 41 -9 19 -20 35 -25 35 -4 0 -12 9 -18 21
-9 16 -8 26 5 45 18 28 35 30 74 10z m419 -2 c22 -15 30 -58 12 -69 -6 -4 -5
-13 2 -25 10 -15 9 -23 -6 -39 -21 -23 -47 -26 -92 -12 -16 5 -47 13 -69 17
l-40 7 70 18 70 18 -55 -4 c-46 -4 -52 -3 -35 7 11 6 29 20 40 31 20 18 20 18
-7 6 -16 -7 -28 -17 -28 -22 0 -5 -6 -4 -14 2 -11 9 -13 6 -10 -14 1 -17 -2
-25 -9 -22 -17 5 -15 28 6 57 9 13 17 19 17 11 0 -7 16 1 37 18 41 34 77 39
111 15z m-213 -64 c23 -26 6 -49 -36 -46 -41 3 -67 29 -49 50 18 22 63 20 85
-4z m-34 -101 c4 -14 7 -17 8 -7 1 9 10 20 21 23 25 8 121 -11 145 -29 26 -18
6 -50 -45 -70 -50 -20 -61 -20 -54 -1 4 8 2 15 -4 15 -5 0 -15 -7 -22 -15 -18
-21 -67 -18 -120 8 -70 34 -64 79 13 97 43 10 50 8 58 -21z m-161 -62 c0 -43
-5 -58 -22 -73 -20 -18 -21 -18 -15 -1 4 10 7 43 7 73 0 41 4 54 15 54 11 0
15 -13 15 -53z m-183 -151 c4 -53 2 -67 -20 -104 l-24 -43 -17 59 c-19 69 -20
118 -4 198 l12 59 23 -54 c13 -30 27 -82 30 -115z m268 112 c5 -5 -8 -8 -28
-8 -35 0 -37 2 -37 32 l0 31 28 -24 c15 -13 31 -27 37 -31z m413 -18 c0 -33
-3 -60 -7 -60 -3 0 -25 13 -48 29 l-42 28 42 31 c23 17 45 31 48 31 4 1 7 -26
7 -59z m-434 -42 c-4 -13 -15 -41 -25 -63 l-18 -40 0 63 c-1 60 0 62 25 62 22
0 24 -3 18 -22z m-84 -189 l-20 -44 4 102 c3 57 11 113 18 125 12 20 13 14 16
-58 2 -64 -1 -89 -18 -125z m-60 -160 c-28 -119 -28 -339 0 -339 4 0 11 32 14
72 8 81 30 144 53 152 22 9 22 7 13 -44 -7 -39 -29 -103 -62 -176 -13 -29 -48
-21 -40 8 3 13 1 19 -5 15 -7 -4 -11 2 -11 16 1 12 -5 68 -11 123 -17 146 6
304 61 434 1 3 4 -35 5 -84 3 -65 -2 -114 -17 -177z m280 192 c0 -6 -5 -13
-10 -16 -6 -4 -8 -14 -6 -23 10 -31 -66 -154 -123 -200 -29 -24 -55 -41 -58
-38 -3 2 22 40 54 83 133 174 123 180 -13 8 -54 -69 -99 -125 -100 -125 -6 0
16 71 34 113 33 74 58 104 135 157 71 50 87 58 87 41z m-224 -161 c-23 -43
-49 -160 -59 -265 -3 -28 -4 -21 -5 23 -2 78 21 195 56 281 24 58 27 63 30 37
2 -17 -7 -48 -22 -76z m-407 -50 c76 -13 141 -44 200 -98 30 -27 41 -44 36
-53 -5 -8 -5 -11 0 -7 11 10 48 -51 41 -68 -3 -7 -1 -15 5 -18 5 -2 4 -3 -3
-1 -7 1 -12 7 -11 14 5 22 -106 99 -297 205 -70 39 -68 41 29 26z m698 -47
c-45 -87 -81 -126 -152 -166 -37 -20 -70 -35 -73 -32 -3 3 44 54 104 113 60
59 109 111 109 115 0 9 28 28 33 22 2 -1 -8 -25 -21 -52z m-52 -6 c-85 -68
-149 -135 -199 -206 -60 -87 -72 -75 -26 26 40 88 88 138 175 179 88 42 101
42 50 1z m-520 -80 c7 -7 5 -7 -4 -2 -10 6 -12 4 -7 -4 5 -7 15 -10 23 -7 8 3
11 1 8 -4 -3 -6 0 -10 7 -11 8 0 9 -2 2 -5 -28 -12 -174 75 -188 111 -5 13
139 -58 159 -78z m992 -129 c-6 -40 -15 -76 -21 -81 -12 -8 -155 -7 -170 1
-11 6 15 22 37 22 9 0 31 12 48 28 51 45 98 92 93 92 -3 0 -2 5 1 10 16 25 20
-5 12 -72z"/>
<path d="M1485 1620 c-4 -6 -11 -8 -16 -5 -5 3 -6 -1 -3 -10 8 -20 26 -15 30
8 3 19 -2 22 -11 7z"/>
<path d="M1520 1530 c8 -5 22 -10 30 -10 13 0 13 1 0 10 -8 5 -22 10 -30 10
-13 0 -13 -1 0 -10z"/>
<path d="M1093 1260 c0 -30 2 -43 4 -27 2 15 2 39 0 55 -2 15 -4 2 -4 -28z"/>
<path d="M702 1261 c81 -143 157 -204 306 -241 34 -9 50 -21 75 -56 47 -67 44
-38 -9 70 -65 135 -143 200 -282 235 -37 10 -78 21 -90 25 l-24 8 24 -41z
m120 -20 c37 -12 81 -35 98 -51 17 -16 34 -30 38 -32 4 -2 6 -6 5 -10 -2 -5 1
-7 6 -5 8 2 91 -99 91 -110 0 -5 -7 -1 -91 57 -38 26 -79 61 -91 76 -33 44
-40 51 -33 32 11 -27 0 -22 -63 29 -31 26 -50 44 -42 41 8 -3 45 -15 82 -27z
m-56 -12 c10 -12 63 -54 116 -95 80 -59 94 -74 78 -79 -11 -3 -28 -1 -37 5
-15 9 -14 10 7 5 22 -5 23 -4 7 5 -10 7 -25 9 -33 6 -10 -4 -12 -2 -8 6 5 8 2
9 -9 5 -9 -3 -19 -1 -23 5 -5 7 -2 8 6 3 9 -6 11 -4 6 4 -5 7 -15 10 -23 7 -8
-3 -11 -2 -8 3 3 5 -4 16 -14 23 -27 19 -105 118 -93 118 5 0 17 -10 28 -21z"/>
<path d="M845 634 c-33 -7 -80 -14 -105 -15 -25 0 -56 -5 -70 -9 -15 -6 15 -7
75 -3 154 8 164 9 177 21 7 5 24 12 38 15 16 3 11 4 -15 5 -22 0 -67 -6 -100
-14z"/>
<path d="M2100 604 c-34 -14 -33 -14 39 -9 40 3 81 10 90 15 27 16 -89 10
-129 -6z"/>
<path d="M1374 592 c3 -5 20 -9 38 -10 23 -1 28 2 18 8 -19 12 -63 13 -56 2z"/>
<path d="M2015 590 c-17 -7 -14 -9 13 -9 20 -1 31 3 27 9 -7 12 -13 12 -40 0z"/>
<path d="M1793 563 c15 -2 37 -2 50 0 12 2 0 4 -28 4 -27 0 -38 -2 -22 -4z"/>
<path d="M1628 553 c12 -2 30 -2 40 0 9 3 -1 5 -23 4 -22 0 -30 -2 -17 -4z"/>
</g>
</svg>
